<svg class="main-svg" xmlns="http://www.w3.org/2000/svg" xmlns:xlink="http://www.w3.org/1999/xlink" width="700" height="500" style="" viewBox="0 0 700 500"><rect x="0" y="0" width="700" height="500" style="fill: rgb(255, 255, 255); fill-opacity: 1;"/><defs id="defs-7fe7ca"><g class="clips"><clipPath id="clip7fe7caxyplot" class="plotclip"><rect width="441" height="292"/></clipPath><clipPath class="axesclip" id="clip7fe7cax"><rect x="80" y="0" width="441" height="500"/></clipPath><clipPath class="axesclip" id="clip7fe7cay"><rect x="0" y="100" width="700" height="292"/></clipPath><clipPath class="axesclip" id="clip7fe7caxy"><rect x="80" y="100" width="441" height="292"/></clipPath></g><g class="gradients"/></defs><g class="bglayer"><rect class="bg" x="80" y="100" width="441" height="292" style="fill: rgb(229, 236, 246); fill-opacity: 1; stroke-width: 0;"/></g><g class="layer-below"><g class="imagelayer"/><g class="shapelayer"/></g><g class="cartesianlayer"><g class="subplot xy"><g class="layer-subplot"><g class="shapelayer"/><g class="imagelayer"/></g><g class="gridlayer"><g class="x"/><g class="y"><path class="ygrid crisp" transform="translate(0,377.61)" d="M80,0h441" style="stroke: rgb(255, 255, 255); stroke-opacity: 1; stroke-width: 1px;"/><path class="ygrid crisp" transform="translate(0,308.82)" d="M80,0h441" style="stroke: rgb(255, 255, 255); stroke-opacity: 1; stroke-width: 1px;"/><path class="ygrid crisp" transform="translate(0,240.03)" d="M80,0h441" style="stroke: rgb(255, 255, 255); stroke-opacity: 1; stroke-width: 1px;"/><path class="ygrid crisp" transform="translate(0,171.24)" d="M80,0h441" style="stroke: rgb(255, 255, 255); stroke-opacity: 1; stroke-width: 1px;"/><path class="ygrid crisp" transform="translate(0,102.45)" d="M80,0h441" style="stroke: rgb(255, 255, 255); stroke-opacity: 1; stroke-width: 1px;"/></g></g><g class="zerolinelayer"/><path class="xlines-below"/><path class="ylines-below"/><g class="overlines-below"/><g class="xaxislayer-below"/><g class="yaxislayer-below"/><g class="overaxes-below"/><g class="plot" transform="translate(80, 100)" clip-path="url('#clip7fe7caxyplot')"><g class="boxlayer mlayer"><g class="trace boxes" style="opacity: 0.6;"><path class="box" d="M14.06,67H41.07M14.06,129.3H41.07V49.02H14.06ZM27.56,129.3V152.11M27.56,49.02V33.95M20.81,152.11H34.32M20.81,33.95H34.32" style="vector-effect: non-scaling-stroke; stroke-width: 0.8px; stroke: rgb(0, 0, 0); stroke-opacity: 1; fill: rgb(31, 119, 180); fill-opacity: 1;"/></g><g class="trace boxes" style="opacity: 0.6;"><path class="box" d="M69.18,89.46H96.19M69.18,124.78H96.19V50.31H69.18ZM82.69,124.78V277.4M82.69,50.31V31.94M75.93,277.4H89.44M75.93,31.94H89.44" style="vector-effect: non-scaling-stroke; stroke-width: 0.8px; stroke: rgb(0, 0, 0); stroke-opacity: 1; fill: rgb(255, 127, 14); fill-opacity: 1;"/></g><g class="trace boxes" style="opacity: 0.6;"><path class="box" d="M124.31,62.47H151.32M124.31,136.13H151.32V39.96H124.31ZM137.81,136.13V233.84M137.81,39.96V16.84M131.06,233.84H144.57M131.06,16.84H144.57" style="vector-effect: non-scaling-stroke; stroke-width: 0.8px; stroke: rgb(0, 0, 0); stroke-opacity: 1; fill: rgb(44, 160, 44); fill-opacity: 1;"/></g><g class="trace boxes" style="opacity: 0.6;"><path class="box" d="M179.43,107.02H206.44M179.43,126.5H206.44V37.99H179.43ZM192.94,126.5V171.84M192.94,37.99V21.65M186.18,171.84H199.69M186.18,21.65H199.69" style="vector-effect: non-scaling-stroke; stroke-width: 0.8px; stroke: rgb(0, 0, 0); stroke-opacity: 1; fill: rgb(214, 39, 40); fill-opacity: 1;"/></g><g class="trace boxes" style="opacity: 0.6;"><path class="box" d="M234.56,55.88H261.57M234.56,123.07H261.57V39.24H234.56ZM248.06,123.07V149.14M248.06,39.24V22.55M241.31,149.14H254.82M241.31,22.55H254.82" style="vector-effect: non-scaling-stroke; stroke-width: 0.8px; stroke: rgb(0, 0, 0); stroke-opacity: 1; fill: rgb(148, 103, 189); fill-opacity: 1;"/></g><g class="trace boxes" style="opacity: 0.6;"><path class="box" d="M289.68,82.71H316.69M289.68,119.35H316.69V48.19H289.68ZM303.19,119.35V270.42M303.19,48.19V29.22M296.43,270.42H309.94M296.43,29.22H309.94" style="vector-effect: non-scaling-stroke; stroke-width: 0.8px; stroke: rgb(0, 0, 0); stroke-opacity: 1; fill: rgb(140, 86, 75); fill-opacity: 1;"/></g><g class="trace boxes" style="opacity: 0.6;"><path class="box" d="M344.81,86.92H371.82M344.81,119.61H371.82V57.03H344.81ZM358.31,119.61V201.35M358.31,57.03V36.27M351.56,201.35H365.07M351.56,36.27H365.07" style="vector-effect: non-scaling-stroke; stroke-width: 0.8px; stroke: rgb(0, 0, 0); stroke-opacity: 1; fill: rgb(227, 119, 194); fill-opacity: 1;"/></g><g class="trace boxes" style="opacity: 0.6;"><path class="box" d="M399.93,21.76H426.94M399.93,26.01H426.94V18.23H399.93ZM413.44,26.01V38.39M413.44,18.23V14.6M406.68,38.39H420.19M406.68,14.6H420.19" style="vector-effect: non-scaling-stroke; stroke-width: 0.8px; stroke: rgb(0, 0, 0); stroke-opacity: 1; fill: rgb(127, 127, 127); fill-opacity: 1;"/></g></g></g><g class="overplot"/><path class="xlines-above crisp" d="M0,0" style="fill: none;"/><path class="ylines-above crisp" d="M0,0" style="fill: none;"/><g class="overlines-above"/><g class="xaxislayer-above"><g class="xtick"><text text-anchor="start" x="0" y="405" transform="translate(107.56,0) rotate(30,0,399)" style="font-family: 'PT Serif'; font-size: 12px; fill: rgb(42, 63, 95); fill-opacity: 1; white-space: pre;">Conv1d</text></g><g class="xtick"><text text-anchor="start" x="0" y="405" transform="translate(162.69,0) rotate(30,0,399)" style="font-family: 'PT Serif'; font-size: 12px; fill: rgb(42, 63, 95); fill-opacity: 1; white-space: pre;">Conv1dThenLinear</text></g><g class="xtick"><text text-anchor="start" x="0" y="405" transform="translate(217.81,0) rotate(30,0,399)" style="font-family: 'PT Serif'; font-size: 12px; fill: rgb(42, 63, 95); fill-opacity: 1; white-space: pre;">Conv2d</text></g><g class="xtick"><text text-anchor="start" x="0" y="405" transform="translate(272.94,0) rotate(30,0,399)" style="font-family: 'PT Serif'; font-size: 12px; fill: rgb(42, 63, 95); fill-opacity: 1; white-space: pre;">Conv2dThenLinear</text></g><g class="xtick"><text text-anchor="start" x="0" y="405" transform="translate(328.06,0) rotate(30,0,399)" style="font-family: 'PT Serif'; font-size: 12px; fill: rgb(42, 63, 95); fill-opacity: 1; white-space: pre;">Conv3d</text></g><g class="xtick"><text text-anchor="start" x="0" y="405" transform="translate(383.19,0) rotate(30,0,399)" style="font-family: 'PT Serif'; font-size: 12px; fill: rgb(42, 63, 95); fill-opacity: 1; white-space: pre;">Conv3dThenLinear</text></g><g class="xtick"><text text-anchor="start" x="0" y="405" transform="translate(438.31,0) rotate(30,0,399)" style="font-family: 'PT Serif'; font-size: 12px; fill: rgb(42, 63, 95); fill-opacity: 1; white-space: pre;">Linear</text></g><g class="xtick"><text text-anchor="start" x="0" y="405" transform="translate(493.44,0) rotate(30,0,399)" style="font-family: 'PT Serif'; font-size: 12px; fill: rgb(42, 63, 95); fill-opacity: 1; white-space: pre;">ResNet</text></g></g><g class="yaxislayer-above"><g class="ytick"><text text-anchor="end" x="79" y="4.199999999999999" transform="translate(0,377.61)" style="font-family: 'PT Serif'; font-size: 12px; fill: rgb(42, 63, 95); fill-opacity: 1; white-space: pre;">0.8</text></g><g class="ytick"><text text-anchor="end" x="79" y="4.199999999999999" transform="translate(0,308.82)" style="font-family: 'PT Serif'; font-size: 12px; fill: rgb(42, 63, 95); fill-opacity: 1; white-space: pre;">0.85</text></g><g class="ytick"><text text-anchor="end" x="79" y="4.199999999999999" transform="translate(0,240.03)" style="font-family: 'PT Serif'; font-size: 12px; fill: rgb(42, 63, 95); fill-opacity: 1; white-space: pre;">0.9</text></g><g class="ytick"><text text-anchor="end" x="79" y="4.199999999999999" transform="translate(0,171.24)" style="font-family: 'PT Serif'; font-size: 12px; fill: rgb(42, 63, 95); fill-opacity: 1; white-space: pre;">0.95</text></g><g class="ytick"><text text-anchor="end" x="79" y="4.199999999999999" transform="translate(0,102.45)" style="font-family: 'PT Serif'; font-size: 12px; fill: rgb(42, 63, 95); fill-opacity: 1; white-space: pre;">1</text></g></g><g class="overaxes-above"/></g></g><g class="polarlayer"/><g class="ternarylayer"/><g class="geolayer"/><g class="funnelarealayer"/><g class="pielayer"/><g class="treemaplayer"/><g class="sunburstlayer"/><g class="glimages"/><defs id="topdefs-7fe7ca"><g class="clips"/><clipPath id="legend7fe7ca"><rect width="158" height="162" x="0" y="0"/></clipPath></defs><g class="layer-above"><g class="imagelayer"/><g class="shapelayer"/></g><g class="infolayer"><g class="legend" pointer-events="all" transform="translate(529.8199999999999, 100)"><rect class="bg" shape-rendering="crispEdges" width="158" height="162" x="0" y="0" style="stroke: rgb(68, 68, 68); stroke-opacity: 1; fill: rgb(255, 255, 255); fill-opacity: 1; stroke-width: 0px;"/><g class="scrollbox" transform="translate(0, 0)" clip-path="url('#legend7fe7ca')"><g class="groups"><g class="traces" transform="translate(0, 14.5)" style="opacity: 1;"><text class="legendtext" text-anchor="start" x="40" y="4.680000000000001" style="font-family: 'PT Serif'; font-size: 12px; fill: rgb(42, 63, 95); fill-opacity: 1; white-space: pre;">Conv1d</text><g class="layers" style="opacity: 0.6;"><g class="legendfill"/><g class="legendlines"/><g class="legendsymbols"><g class="legendpoints"><path class="legendbox" d="M6,6H-6V-6H6Z" transform="translate(20,0)" style="stroke-width: 0.8px; fill: rgb(31, 119, 180); fill-opacity: 1; stroke: rgb(0, 0, 0); stroke-opacity: 1;"/></g></g></g><rect class="legendtoggle" x="0" y="-9.5" width="153" height="19" style="fill: rgb(0, 0, 0); fill-opacity: 0;"/></g><g class="traces" transform="translate(0, 33.5)" style="opacity: 1;"><text class="legendtext" text-anchor="start" x="40" y="4.680000000000001" style="font-family: 'PT Serif'; font-size: 12px; fill: rgb(42, 63, 95); fill-opacity: 1; white-space: pre;">Conv1dThenLinear</text><g class="layers" style="opacity: 0.6;"><g class="legendfill"/><g class="legendlines"/><g class="legendsymbols"><g class="legendpoints"><path class="legendbox" d="M6,6H-6V-6H6Z" transform="translate(20,0)" style="stroke-width: 0.8px; fill: rgb(255, 127, 14); fill-opacity: 1; stroke: rgb(0, 0, 0); stroke-opacity: 1;"/></g></g></g><rect class="legendtoggle" x="0" y="-9.5" width="153" height="19" style="fill: rgb(0, 0, 0); fill-opacity: 0;"/></g><g class="traces" transform="translate(0, 52.5)" style="opacity: 1;"><text class="legendtext" text-anchor="start" x="40" y="4.680000000000001" style="font-family: 'PT Serif'; font-size: 12px; fill: rgb(42, 63, 95); fill-opacity: 1; white-space: pre;">Conv2d</text><g class="layers" style="opacity: 0.6;"><g class="legendfill"/><g class="legendlines"/><g class="legendsymbols"><g class="legendpoints"><path class="legendbox" d="M6,6H-6V-6H6Z" transform="translate(20,0)" style="stroke-width: 0.8px; fill: rgb(44, 160, 44); fill-opacity: 1; stroke: rgb(0, 0, 0); stroke-opacity: 1;"/></g></g></g><rect class="legendtoggle" x="0" y="-9.5" width="153" height="19" style="fill: rgb(0, 0, 0); fill-opacity: 0;"/></g><g class="traces" transform="translate(0, 71.5)" style="opacity: 1;"><text class="legendtext" text-anchor="start" x="40" y="4.680000000000001" style="font-family: 'PT Serif'; font-size: 12px; fill: rgb(42, 63, 95); fill-opacity: 1; white-space: pre;">Conv2dThenLinear</text><g class="layers" style="opacity: 0.6;"><g class="legendfill"/><g class="legendlines"/><g class="legendsymbols"><g class="legendpoints"><path class="legendbox" d="M6,6H-6V-6H6Z" transform="translate(20,0)" style="stroke-width: 0.8px; fill: rgb(214, 39, 40); fill-opacity: 1; stroke: rgb(0, 0, 0); stroke-opacity: 1;"/></g></g></g><rect class="legendtoggle" x="0" y="-9.5" width="153" height="19" style="fill: rgb(0, 0, 0); fill-opacity: 0;"/></g><g class="traces" transform="translate(0, 90.5)" style="opacity: 1;"><text class="legendtext" text-anchor="start" x="40" y="4.680000000000001" style="font-family: 'PT Serif'; font-size: 12px; fill: rgb(42, 63, 95); fill-opacity: 1; white-space: pre;">Conv3d</text><g class="layers" style="opacity: 0.6;"><g class="legendfill"/><g class="legendlines"/><g class="legendsymbols"><g class="legendpoints"><path class="legendbox" d="M6,6H-6V-6H6Z" transform="translate(20,0)" style="stroke-width: 0.8px; fill: rgb(148, 103, 189); fill-opacity: 1; stroke: rgb(0, 0, 0); stroke-opacity: 1;"/></g></g></g><rect class="legendtoggle" x="0" y="-9.5" width="153" height="19" style="fill: rgb(0, 0, 0); fill-opacity: 0;"/></g><g class="traces" transform="translate(0, 109.5)" style="opacity: 1;"><text class="legendtext" text-anchor="start" x="40" y="4.680000000000001" style="font-family: 'PT Serif'; font-size: 12px; fill: rgb(42, 63, 95); fill-opacity: 1; white-space: pre;">Conv3dThenLinear</text><g class="layers" style="opacity: 0.6;"><g class="legendfill"/><g class="legendlines"/><g class="legendsymbols"><g class="legendpoints"><path class="legendbox" d="M6,6H-6V-6H6Z" transform="translate(20,0)" style="stroke-width: 0.8px; fill: rgb(140, 86, 75); fill-opacity: 1; stroke: rgb(0, 0, 0); stroke-opacity: 1;"/></g></g></g><rect class="legendtoggle" x="0" y="-9.5" width="153" height="19" style="fill: rgb(0, 0, 0); fill-opacity: 0;"/></g><g class="traces" transform="translate(0, 128.5)" style="opacity: 1;"><text class="legendtext" text-anchor="start" x="40" y="4.680000000000001" style="font-family: 'PT Serif'; font-size: 12px; fill: rgb(42, 63, 95); fill-opacity: 1; white-space: pre;">Linear</text><g class="layers" style="opacity: 0.6;"><g class="legendfill"/><g class="legendlines"/><g class="legendsymbols"><g class="legendpoints"><path class="legendbox" d="M6,6H-6V-6H6Z" transform="translate(20,0)" style="stroke-width: 0.8px; fill: rgb(227, 119, 194); fill-opacity: 1; stroke: rgb(0, 0, 0); stroke-opacity: 1;"/></g></g></g><rect class="legendtoggle" x="0" y="-9.5" width="153" height="19" style="fill: rgb(0, 0, 0); fill-opacity: 0;"/></g><g class="traces" transform="translate(0, 147.5)" style="opacity: 1;"><text class="legendtext" text-anchor="start" x="40" y="4.680000000000001" style="font-family: 'PT Serif'; font-size: 12px; fill: rgb(42, 63, 95); fill-opacity: 1; white-space: pre;">ResNet</text><g class="layers" style="opacity: 0.6;"><g class="legendfill"/><g class="legendlines"/><g class="legendsymbols"><g class="legendpoints"><path class="legendbox" d="M6,6H-6V-6H6Z" transform="translate(20,0)" style="stroke-width: 0.8px; fill: rgb(127, 127, 127); fill-opacity: 1; stroke: rgb(0, 0, 0); stroke-opacity: 1;"/></g></g></g><rect class="legendtoggle" x="0" y="-9.5" width="153" height="19" style="fill: rgb(0, 0, 0); fill-opacity: 0;"/></g></g></g><rect class="scrollbar" rx="20" ry="3" width="0" height="0" x="0" y="0" style="fill: rgb(128, 139, 164); fill-opacity: 1;"/></g><g class="g-gtitle"><text class="gtitle" x="35" y="50" text-anchor="start" dy="0em" style="font-family: 'PT Serif'; font-size: 17px; fill: rgb(42, 63, 95); opacity: 1; font-weight: normal; white-space: pre;">Performance per Net type</text></g><g class="g-xtitle"><text class="xtitle" x="300.5" y="488.0939453125" text-anchor="middle" style="font-family: 'PT Serif'; font-size: 14px; fill: rgb(42, 63, 95); opacity: 1; font-weight: normal; white-space: pre;">Network Type</text></g><g class="g-ytitle"><text class="ytitle" transform="rotate(-90,26.200000000000003,246)" x="26.200000000000003" y="246" text-anchor="middle" style="font-family: 'PT Serif'; font-size: 14px; fill: rgb(42, 63, 95); opacity: 1; font-weight: normal; white-space: pre;">Accuracy</text></g></g></svg>