<svg class="main-svg" xmlns="http://www.w3.org/2000/svg" xmlns:xlink="http://www.w3.org/1999/xlink" width="700" height="500" style="" viewBox="0 0 700 500"><rect x="0" y="0" width="700" height="500" style="fill: rgb(255, 255, 255); fill-opacity: 1;"/><defs id="defs-0946d2"><g class="clips"><clipPath id="clip0946d2xyplot" class="plotclip"><rect width="504" height="292"/></clipPath><clipPath class="axesclip" id="clip0946d2x"><rect x="80" y="0" width="504" height="500"/></clipPath><clipPath class="axesclip" id="clip0946d2y"><rect x="0" y="100" width="700" height="292"/></clipPath><clipPath class="axesclip" id="clip0946d2xy"><rect x="80" y="100" width="504" height="292"/></clipPath></g><g class="gradients"/></defs><g class="bglayer"><rect class="bg" x="80" y="100" width="504" height="292" style="fill: rgb(229, 236, 246); fill-opacity: 1; stroke-width: 0;"/></g><g class="layer-below"><g class="imagelayer"/><g class="shapelayer"/></g><g class="cartesianlayer"><g class="subplot xy"><g class="layer-subplot"><g class="shapelayer"/><g class="imagelayer"/></g><g class="gridlayer"><g class="x"/><g class="y"><path class="ygrid crisp" transform="translate(0,377.61)" d="M80,0h504" style="stroke: rgb(255, 255, 255); stroke-opacity: 1; stroke-width: 1px;"/><path class="ygrid crisp" transform="translate(0,308.82)" d="M80,0h504" style="stroke: rgb(255, 255, 255); stroke-opacity: 1; stroke-width: 1px;"/><path class="ygrid crisp" transform="translate(0,240.03)" d="M80,0h504" style="stroke: rgb(255, 255, 255); stroke-opacity: 1; stroke-width: 1px;"/><path class="ygrid crisp" transform="translate(0,171.24)" d="M80,0h504" style="stroke: rgb(255, 255, 255); stroke-opacity: 1; stroke-width: 1px;"/><path class="ygrid crisp" transform="translate(0,102.45)" d="M80,0h504" style="stroke: rgb(255, 255, 255); stroke-opacity: 1; stroke-width: 1px;"/></g></g><g class="zerolinelayer"/><path class="xlines-below"/><path class="ylines-below"/><g class="overlines-below"/><g class="xaxislayer-below"/><g class="yaxislayer-below"/><g class="overaxes-below"/><g class="plot" transform="translate(80, 100)" clip-path="url('#clip0946d2xyplot')"><g class="boxlayer mlayer"><g class="trace boxes" style="opacity: 0.7;"><path class="box" d="M12.54,118.19H20.21M12.54,133.11H20.21V82.36H12.54ZM16.37,133.11V179.21M16.37,82.36V53.78M14.46,179.21H18.29M14.46,53.78H18.29" style="vector-effect: non-scaling-stroke; stroke-width: 0.7px; stroke: rgb(0, 0, 0); stroke-opacity: 1; fill: rgb(31, 119, 180); fill-opacity: 1;"/><path class="box" d="M75.16,33.49H82.83M75.16,39.01H82.83V29.61H75.16ZM79,39.01V52.16M79,29.61V24.53M77.08,52.16H80.92M77.08,24.53H80.92" style="vector-effect: non-scaling-stroke; stroke-width: 0.7px; stroke: rgb(0, 0, 0); stroke-opacity: 1; fill: rgb(31, 119, 180); fill-opacity: 1;"/><path class="box" d="M137.79,97.72H145.46M137.79,134.46H145.46V54.99H137.79ZM141.62,134.46V181.84M141.62,54.99V31.49M139.71,181.84H143.54M139.71,31.49H143.54" style="vector-effect: non-scaling-stroke; stroke-width: 0.7px; stroke: rgb(0, 0, 0); stroke-opacity: 1; fill: rgb(31, 119, 180); fill-opacity: 1;"/><path class="box" d="M200.41,121.45H208.08M200.41,142.16H208.08V65.54H200.41ZM204.25,142.16V242.94M204.25,65.54V32.4M202.33,242.94H206.17M202.33,32.4H206.17" style="vector-effect: non-scaling-stroke; stroke-width: 0.7px; stroke: rgb(0, 0, 0); stroke-opacity: 1; fill: rgb(31, 119, 180); fill-opacity: 1;"/><path class="box" d="M263.04,104.25H270.71M263.04,140.88H270.71V71.8H263.04ZM266.87,140.88V207.61M266.87,71.8V45.15M264.96,207.61H268.79M264.96,45.15H268.79" style="vector-effect: non-scaling-stroke; stroke-width: 0.7px; stroke: rgb(0, 0, 0); stroke-opacity: 1; fill: rgb(31, 119, 180); fill-opacity: 1;"/><path class="box" d="M325.66,112.67H333.33M325.66,132.51H333.33V80.77H325.66ZM329.5,132.51V197.31M329.5,80.77V44.5M327.58,197.31H331.42M327.58,44.5H331.42" style="vector-effect: non-scaling-stroke; stroke-width: 0.7px; stroke: rgb(0, 0, 0); stroke-opacity: 1; fill: rgb(31, 119, 180); fill-opacity: 1;"/><path class="box" d="M388.29,95.05H395.96M388.29,149.46H395.96V55.51H388.29ZM392.12,149.46V214.52M392.12,55.51V24.33M390.21,214.52H394.04M390.21,24.33H394.04" style="vector-effect: non-scaling-stroke; stroke-width: 0.7px; stroke: rgb(0, 0, 0); stroke-opacity: 1; fill: rgb(31, 119, 180); fill-opacity: 1;"/><path class="box" d="M450.91,114.98H458.58M450.91,134.26H458.58V75.04H450.91ZM454.75,134.26V222.31M454.75,75.04V40.31M452.83,222.31H456.67M452.83,40.31H456.67" style="vector-effect: non-scaling-stroke; stroke-width: 0.7px; stroke: rgb(0, 0, 0); stroke-opacity: 1; fill: rgb(31, 119, 180); fill-opacity: 1;"/><g class="points"><path class="point" transform="translate(16.37,270.4)" d="M1.5,0A1.5,1.5 0 1,1 0,-1.5A1.5,1.5 0 0,1 1.5,0Z" style="opacity: 0.7; stroke-width: 0px; fill: rgb(0, 0, 0); fill-opacity: 1;"/></g><g class="points"><path class="point" transform="translate(79,61.4)" d="M1.5,0A1.5,1.5 0 1,1 0,-1.5A1.5,1.5 0 0,1 1.5,0Z" style="opacity: 0.7; stroke-width: 0px; fill: rgb(0, 0, 0); fill-opacity: 1;"/><path class="point" transform="translate(79,60.86)" d="M1.5,0A1.5,1.5 0 1,1 0,-1.5A1.5,1.5 0 0,1 1.5,0Z" style="opacity: 0.7; stroke-width: 0px; fill: rgb(0, 0, 0); fill-opacity: 1;"/><path class="point" transform="translate(79,55.73)" d="M1.5,0A1.5,1.5 0 1,1 0,-1.5A1.5,1.5 0 0,1 1.5,0Z" style="opacity: 0.7; stroke-width: 0px; fill: rgb(0, 0, 0); fill-opacity: 1;"/><path class="point" transform="translate(79,54.07)" d="M1.5,0A1.5,1.5 0 1,1 0,-1.5A1.5,1.5 0 0,1 1.5,0Z" style="opacity: 0.7; stroke-width: 0px; fill: rgb(0, 0, 0); fill-opacity: 1;"/></g><g class="points"/><g class="points"><path class="point" transform="translate(204.25,259.24)" d="M1.5,0A1.5,1.5 0 1,1 0,-1.5A1.5,1.5 0 0,1 1.5,0Z" style="opacity: 0.7; stroke-width: 0px; fill: rgb(0, 0, 0); fill-opacity: 1;"/></g><g class="points"/><g class="points"><path class="point" transform="translate(329.5,270.75)" d="M1.5,0A1.5,1.5 0 1,1 0,-1.5A1.5,1.5 0 0,1 1.5,0Z" style="opacity: 0.7; stroke-width: 0px; fill: rgb(0, 0, 0); fill-opacity: 1;"/><path class="point" transform="translate(329.5,237.85)" d="M1.5,0A1.5,1.5 0 1,1 0,-1.5A1.5,1.5 0 0,1 1.5,0Z" style="opacity: 0.7; stroke-width: 0px; fill: rgb(0, 0, 0); fill-opacity: 1;"/></g><g class="points"/><g class="points"><path class="point" transform="translate(454.75,254.86)" d="M1.5,0A1.5,1.5 0 1,1 0,-1.5A1.5,1.5 0 0,1 1.5,0Z" style="opacity: 0.7; stroke-width: 0px; fill: rgb(0, 0, 0); fill-opacity: 1;"/><path class="point" transform="translate(454.75,230.04)" d="M1.5,0A1.5,1.5 0 1,1 0,-1.5A1.5,1.5 0 0,1 1.5,0Z" style="opacity: 0.7; stroke-width: 0px; fill: rgb(0, 0, 0); fill-opacity: 1;"/><path class="point" transform="translate(454.75,225.22)" d="M1.5,0A1.5,1.5 0 1,1 0,-1.5A1.5,1.5 0 0,1 1.5,0Z" style="opacity: 0.7; stroke-width: 0px; fill: rgb(0, 0, 0); fill-opacity: 1;"/></g></g><g class="trace boxes" style="opacity: 0.7;"><path class="box" d="M23.5,103.1H31.17M23.5,125.17H31.17V67.97H23.5ZM27.33,125.17V201.96M27.33,67.97V43.54M25.41,201.96H29.25M25.41,43.54H29.25" style="vector-effect: non-scaling-stroke; stroke-width: 0.7px; stroke: rgb(0, 0, 0); stroke-opacity: 1; fill: rgb(255, 127, 14); fill-opacity: 1;"/><path class="box" d="M86.12,27.46H93.79M86.12,31.54H93.79V24.82H86.12ZM89.96,31.54V40.59M89.96,24.82V19.12M88.04,40.59H91.88M88.04,19.12H91.88" style="vector-effect: non-scaling-stroke; stroke-width: 0.7px; stroke: rgb(0, 0, 0); stroke-opacity: 1; fill: rgb(255, 127, 14); fill-opacity: 1;"/><path class="box" d="M148.75,69.1H156.42M148.75,127.21H156.42V47.68H148.75ZM152.58,127.21V161.98M152.58,47.68V25.21M150.66,161.98H154.5M150.66,25.21H154.5" style="vector-effect: non-scaling-stroke; stroke-width: 0.7px; stroke: rgb(0, 0, 0); stroke-opacity: 1; fill: rgb(255, 127, 14); fill-opacity: 1;"/><path class="box" d="M211.37,115.29H219.04M211.37,131.67H219.04V48.96H211.37ZM215.21,131.67V189.46M215.21,48.96V28.41M213.29,189.46H217.13M213.29,28.41H217.13" style="vector-effect: non-scaling-stroke; stroke-width: 0.7px; stroke: rgb(0, 0, 0); stroke-opacity: 1; fill: rgb(255, 127, 14); fill-opacity: 1;"/><path class="box" d="M274,82.54H281.67M274,135.79H281.67V57.24H274ZM277.83,135.79V173.46M277.83,57.24V32.86M275.91,173.46H279.75M275.91,32.86H279.75" style="vector-effect: non-scaling-stroke; stroke-width: 0.7px; stroke: rgb(0, 0, 0); stroke-opacity: 1; fill: rgb(255, 127, 14); fill-opacity: 1;"/><path class="box" d="M336.62,99.67H344.29M336.62,128.82H344.29V61.57H336.62ZM340.46,128.82V226.68M340.46,61.57V38.78M338.54,226.68H342.38M338.54,38.78H342.38" style="vector-effect: non-scaling-stroke; stroke-width: 0.7px; stroke: rgb(0, 0, 0); stroke-opacity: 1; fill: rgb(255, 127, 14); fill-opacity: 1;"/><path class="box" d="M399.25,76.19H406.92M399.25,142.22H406.92V45.95H399.25ZM403.08,142.22V206.04M403.08,45.95V20.86M401.16,206.04H405M401.16,20.86H405" style="vector-effect: non-scaling-stroke; stroke-width: 0.7px; stroke: rgb(0, 0, 0); stroke-opacity: 1; fill: rgb(255, 127, 14); fill-opacity: 1;"/><path class="box" d="M461.87,92.64H469.54M461.87,125.69H469.54V59.85H461.87ZM465.71,125.69V221.97M465.71,59.85V35.74M463.79,221.97H467.63M463.79,35.74H467.63" style="vector-effect: non-scaling-stroke; stroke-width: 0.7px; stroke: rgb(0, 0, 0); stroke-opacity: 1; fill: rgb(255, 127, 14); fill-opacity: 1;"/><g class="points"/><g class="points"><path class="point" transform="translate(89.96,67.81)" d="M1.5,0A1.5,1.5 0 1,1 0,-1.5A1.5,1.5 0 0,1 1.5,0Z" style="opacity: 0.7; stroke-width: 0px; fill: rgb(0, 0, 0); fill-opacity: 1;"/><path class="point" transform="translate(89.96,50.72)" d="M1.5,0A1.5,1.5 0 1,1 0,-1.5A1.5,1.5 0 0,1 1.5,0Z" style="opacity: 0.7; stroke-width: 0px; fill: rgb(0, 0, 0); fill-opacity: 1;"/><path class="point" transform="translate(89.96,46.64)" d="M1.5,0A1.5,1.5 0 1,1 0,-1.5A1.5,1.5 0 0,1 1.5,0Z" style="opacity: 0.7; stroke-width: 0px; fill: rgb(0, 0, 0); fill-opacity: 1;"/><path class="point" transform="translate(89.96,44.47)" d="M1.5,0A1.5,1.5 0 1,1 0,-1.5A1.5,1.5 0 0,1 1.5,0Z" style="opacity: 0.7; stroke-width: 0px; fill: rgb(0, 0, 0); fill-opacity: 1;"/><path class="point" transform="translate(89.96,42.5)" d="M1.5,0A1.5,1.5 0 1,1 0,-1.5A1.5,1.5 0 0,1 1.5,0Z" style="opacity: 0.7; stroke-width: 0px; fill: rgb(0, 0, 0); fill-opacity: 1;"/><path class="point" transform="translate(89.96,42.33)" d="M1.5,0A1.5,1.5 0 1,1 0,-1.5A1.5,1.5 0 0,1 1.5,0Z" style="opacity: 0.7; stroke-width: 0px; fill: rgb(0, 0, 0); fill-opacity: 1;"/></g><g class="points"/><g class="points"/><g class="points"/><g class="points"><path class="point" transform="translate(340.46,239.36)" d="M1.5,0A1.5,1.5 0 1,1 0,-1.5A1.5,1.5 0 0,1 1.5,0Z" style="opacity: 0.7; stroke-width: 0px; fill: rgb(0, 0, 0); fill-opacity: 1;"/></g><g class="points"/><g class="points"><path class="point" transform="translate(465.71,243.97)" d="M1.5,0A1.5,1.5 0 1,1 0,-1.5A1.5,1.5 0 0,1 1.5,0Z" style="opacity: 0.7; stroke-width: 0px; fill: rgb(0, 0, 0); fill-opacity: 1;"/></g></g><g class="trace boxes" style="opacity: 0.7;"><path class="box" d="M34.46,93.72H42.13M34.46,121.45H42.13V61.92H34.46ZM38.29,121.45V145.61M38.29,61.92V38.4M36.37,145.61H40.21M36.37,38.4H40.21" style="vector-effect: non-scaling-stroke; stroke-width: 0.7px; stroke: rgb(0, 0, 0); stroke-opacity: 1; fill: rgb(44, 160, 44); fill-opacity: 1;"/><path class="box" d="M97.08,23.8H104.75M97.08,29.45H104.75V21.02H97.08ZM100.92,29.45V41.35M100.92,21.02V16.42M99,41.35H102.84M99,16.42H102.84" style="vector-effect: non-scaling-stroke; stroke-width: 0.7px; stroke: rgb(0, 0, 0); stroke-opacity: 1; fill: rgb(44, 160, 44); fill-opacity: 1;"/><path class="box" d="M159.71,58.99H167.38M159.71,124.27H167.38V41.27H159.71ZM163.54,124.27V148.6M163.54,41.27V25.83M161.62,148.6H165.46M161.62,25.83H165.46" style="vector-effect: non-scaling-stroke; stroke-width: 0.7px; stroke: rgb(0, 0, 0); stroke-opacity: 1; fill: rgb(44, 160, 44); fill-opacity: 1;"/><path class="box" d="M222.33,111.11H230M222.33,128.18H230V42.94H222.33ZM226.17,128.18V190.49M226.17,42.94V26.23M224.25,190.49H228.09M224.25,26.23H228.09" style="vector-effect: non-scaling-stroke; stroke-width: 0.7px; stroke: rgb(0, 0, 0); stroke-opacity: 1; fill: rgb(44, 160, 44); fill-opacity: 1;"/><path class="box" d="M284.96,72.16H292.63M284.96,132.45H292.63V51.56H284.96ZM288.79,132.45V162.12M288.79,51.56V33.23M286.87,162.12H290.71M286.87,33.23H290.71" style="vector-effect: non-scaling-stroke; stroke-width: 0.7px; stroke: rgb(0, 0, 0); stroke-opacity: 1; fill: rgb(44, 160, 44); fill-opacity: 1;"/><path class="box" d="M347.58,91.04H355.25M347.58,126.79H355.25V55.78H347.58ZM351.42,126.79V223.26M351.42,55.78V30.78M349.5,223.26H353.34M349.5,30.78H353.34" style="vector-effect: non-scaling-stroke; stroke-width: 0.7px; stroke: rgb(0, 0, 0); stroke-opacity: 1; fill: rgb(44, 160, 44); fill-opacity: 1;"/><path class="box" d="M410.21,67.6H417.88M410.21,132.87H417.88V42.34H410.21ZM414.04,132.87V184.92M414.04,42.34V17.45M412.12,184.92H415.96M412.12,17.45H415.96" style="vector-effect: non-scaling-stroke; stroke-width: 0.7px; stroke: rgb(0, 0, 0); stroke-opacity: 1; fill: rgb(44, 160, 44); fill-opacity: 1;"/><path class="box" d="M472.83,85.31H480.5M472.83,124.92H480.5V50.85H472.83ZM476.67,124.92V233.28M476.67,50.85V30.37M474.75,233.28H478.59M474.75,30.37H478.59" style="vector-effect: non-scaling-stroke; stroke-width: 0.7px; stroke: rgb(0, 0, 0); stroke-opacity: 1; fill: rgb(44, 160, 44); fill-opacity: 1;"/><g class="points"><path class="point" transform="translate(38.29,224.71)" d="M1.5,0A1.5,1.5 0 1,1 0,-1.5A1.5,1.5 0 0,1 1.5,0Z" style="opacity: 0.7; stroke-width: 0px; fill: rgb(0, 0, 0); fill-opacity: 1;"/></g><g class="points"><path class="point" transform="translate(100.92,54.6)" d="M1.5,0A1.5,1.5 0 1,1 0,-1.5A1.5,1.5 0 0,1 1.5,0Z" style="opacity: 0.7; stroke-width: 0px; fill: rgb(0, 0, 0); fill-opacity: 1;"/><path class="point" transform="translate(100.92,48.69)" d="M1.5,0A1.5,1.5 0 1,1 0,-1.5A1.5,1.5 0 0,1 1.5,0Z" style="opacity: 0.7; stroke-width: 0px; fill: rgb(0, 0, 0); fill-opacity: 1;"/></g><g class="points"/><g class="points"/><g class="points"/><g class="points"/><g class="points"/><g class="points"/></g><g class="trace boxes" style="opacity: 0.7;"><path class="box" d="M45.42,86.92H53.09M45.42,119.61H53.09V57.03H45.42ZM49.25,119.61V201.35M49.25,57.03V36.27M47.33,201.35H51.17M47.33,36.27H51.17" style="vector-effect: non-scaling-stroke; stroke-width: 0.7px; stroke: rgb(0, 0, 0); stroke-opacity: 1; fill: rgb(214, 39, 40); fill-opacity: 1;"/><path class="box" d="M108.04,21.76H115.71M108.04,26.01H115.71V18.23H108.04ZM111.88,26.01V36.89M111.88,18.23V14.6M109.96,36.89H113.79M109.96,14.6H113.79" style="vector-effect: non-scaling-stroke; stroke-width: 0.7px; stroke: rgb(0, 0, 0); stroke-opacity: 1; fill: rgb(214, 39, 40); fill-opacity: 1;"/><path class="box" d="M170.67,55.88H178.34M170.67,123.07H178.34V39.24H170.67ZM174.5,123.07V149.14M174.5,39.24V22.55M172.58,149.14H176.42M172.58,22.55H176.42" style="vector-effect: non-scaling-stroke; stroke-width: 0.7px; stroke: rgb(0, 0, 0); stroke-opacity: 1; fill: rgb(214, 39, 40); fill-opacity: 1;"/><path class="box" d="M233.29,107.02H240.96M233.29,126.5H240.96V37.99H233.29ZM237.13,126.5V171.84M237.13,37.99V21.65M235.21,171.84H239.04M235.21,21.65H239.04" style="vector-effect: non-scaling-stroke; stroke-width: 0.7px; stroke: rgb(0, 0, 0); stroke-opacity: 1; fill: rgb(214, 39, 40); fill-opacity: 1;"/><path class="box" d="M295.92,67H303.59M295.92,129.3H303.59V49.02H295.92ZM299.75,129.3V152.11M299.75,49.02V33.95M297.83,152.11H301.67M297.83,33.95H301.67" style="vector-effect: non-scaling-stroke; stroke-width: 0.7px; stroke: rgb(0, 0, 0); stroke-opacity: 1; fill: rgb(214, 39, 40); fill-opacity: 1;"/><path class="box" d="M358.54,89.46H366.21M358.54,124.78H366.21V50.31H358.54ZM362.38,124.78V222.05M362.38,50.31V31.94M360.46,222.05H364.29M360.46,31.94H364.29" style="vector-effect: non-scaling-stroke; stroke-width: 0.7px; stroke: rgb(0, 0, 0); stroke-opacity: 1; fill: rgb(214, 39, 40); fill-opacity: 1;"/><path class="box" d="M421.17,62.47H428.84M421.17,136.13H428.84V39.96H421.17ZM425,136.13V233.84M425,39.96V16.84M423.08,233.84H426.92M423.08,16.84H426.92" style="vector-effect: non-scaling-stroke; stroke-width: 0.7px; stroke: rgb(0, 0, 0); stroke-opacity: 1; fill: rgb(214, 39, 40); fill-opacity: 1;"/><path class="box" d="M483.79,82.71H491.46M483.79,119.35H491.46V48.19H483.79ZM487.63,119.35V203.68M487.63,48.19V29.22M485.71,203.68H489.54M485.71,29.22H489.54" style="vector-effect: non-scaling-stroke; stroke-width: 0.7px; stroke: rgb(0, 0, 0); stroke-opacity: 1; fill: rgb(214, 39, 40); fill-opacity: 1;"/><g class="points"/><g class="points"><path class="point" transform="translate(111.88,38.39)" d="M1.5,0A1.5,1.5 0 1,1 0,-1.5A1.5,1.5 0 0,1 1.5,0Z" style="opacity: 0.7; stroke-width: 0px; fill: rgb(0, 0, 0); fill-opacity: 1;"/></g><g class="points"/><g class="points"/><g class="points"/><g class="points"><path class="point" transform="translate(362.38,277.4)" d="M1.5,0A1.5,1.5 0 1,1 0,-1.5A1.5,1.5 0 0,1 1.5,0Z" style="opacity: 0.7; stroke-width: 0px; fill: rgb(0, 0, 0); fill-opacity: 1;"/></g><g class="points"/><g class="points"><path class="point" transform="translate(487.63,270.42)" d="M1.5,0A1.5,1.5 0 1,1 0,-1.5A1.5,1.5 0 0,1 1.5,0Z" style="opacity: 0.7; stroke-width: 0px; fill: rgb(0, 0, 0); fill-opacity: 1;"/></g></g></g></g><g class="overplot"/><path class="xlines-above crisp" d="M0,0" style="fill: none;"/><path class="ylines-above crisp" d="M0,0" style="fill: none;"/><g class="overlines-above"/><g class="xaxislayer-above"><g class="xtick"><text text-anchor="start" x="0" y="405" transform="translate(112.81,0) rotate(30,0,399)" style="font-family: 'PT Serif'; font-size: 12px; fill: rgb(42, 63, 95); fill-opacity: 1; white-space: pre;">Linear</text></g><g class="xtick"><text text-anchor="start" x="0" y="405" transform="translate(175.44,0) rotate(30,0,399)" style="font-family: 'PT Serif'; font-size: 12px; fill: rgb(42, 63, 95); fill-opacity: 1; white-space: pre;">ResNet</text></g><g class="xtick"><text text-anchor="start" x="0" y="405" transform="translate(238.06,0) rotate(30,0,399)" style="font-family: 'PT Serif'; font-size: 12px; fill: rgb(42, 63, 95); fill-opacity: 1; white-space: pre;">Conv3d</text></g><g class="xtick"><text text-anchor="start" x="0" y="405" transform="translate(300.69,0) rotate(30,0,399)" style="font-family: 'PT Serif'; font-size: 12px; fill: rgb(42, 63, 95); fill-opacity: 1; white-space: pre;">Conv2dThenLinear</text></g><g class="xtick"><text text-anchor="start" x="0" y="405" transform="translate(363.31,0) rotate(30,0,399)" style="font-family: 'PT Serif'; font-size: 12px; fill: rgb(42, 63, 95); fill-opacity: 1; white-space: pre;">Conv1d</text></g><g class="xtick"><text text-anchor="start" x="0" y="405" transform="translate(425.94,0) rotate(30,0,399)" style="font-family: 'PT Serif'; font-size: 12px; fill: rgb(42, 63, 95); fill-opacity: 1; white-space: pre;">Conv1dThenLinear</text></g><g class="xtick"><text text-anchor="start" x="0" y="405" transform="translate(488.56,0) rotate(30,0,399)" style="font-family: 'PT Serif'; font-size: 12px; fill: rgb(42, 63, 95); fill-opacity: 1; white-space: pre;">Conv2d</text></g><g class="xtick"><text text-anchor="start" x="0" y="405" transform="translate(551.19,0) rotate(30,0,399)" style="font-family: 'PT Serif'; font-size: 12px; fill: rgb(42, 63, 95); fill-opacity: 1; white-space: pre;">Conv3dThenLinear</text></g></g><g class="yaxislayer-above"><g class="ytick"><text text-anchor="end" x="79" y="4.199999999999999" transform="translate(0,377.61)" style="font-family: 'PT Serif'; font-size: 12px; fill: rgb(42, 63, 95); fill-opacity: 1; white-space: pre;">0.8</text></g><g class="ytick"><text text-anchor="end" x="79" y="4.199999999999999" transform="translate(0,308.82)" style="font-family: 'PT Serif'; font-size: 12px; fill: rgb(42, 63, 95); fill-opacity: 1; white-space: pre;">0.85</text></g><g class="ytick"><text text-anchor="end" x="79" y="4.199999999999999" transform="translate(0,240.03)" style="font-family: 'PT Serif'; font-size: 12px; fill: rgb(42, 63, 95); fill-opacity: 1; white-space: pre;">0.9</text></g><g class="ytick"><text text-anchor="end" x="79" y="4.199999999999999" transform="translate(0,171.24)" style="font-family: 'PT Serif'; font-size: 12px; fill: rgb(42, 63, 95); fill-opacity: 1; white-space: pre;">0.95</text></g><g class="ytick"><text text-anchor="end" x="79" y="4.199999999999999" transform="translate(0,102.45)" style="font-family: 'PT Serif'; font-size: 12px; fill: rgb(42, 63, 95); fill-opacity: 1; white-space: pre;">1</text></g></g><g class="overaxes-above"/></g></g><g class="polarlayer"/><g class="ternarylayer"/><g class="geolayer"/><g class="funnelarealayer"/><g class="pielayer"/><g class="treemaplayer"/><g class="sunburstlayer"/><g class="glimages"/><defs id="topdefs-0946d2"><g class="clips"/><clipPath id="legend0946d2"><rect width="94" height="86" x="0" y="0"/></clipPath></defs><g class="layer-above"><g class="imagelayer"/><g class="shapelayer"/></g><g class="infolayer"><g class="legend" pointer-events="all" transform="translate(594.08, 100)"><rect class="bg" shape-rendering="crispEdges" style="stroke: rgb(68, 68, 68); stroke-opacity: 1; fill: rgb(255, 255, 255); fill-opacity: 1; stroke-width: 0px;" width="94" height="86" x="0" y="0"/><g class="scrollbox" transform="translate(0, 0)" clip-path="url('#legend0946d2')"><g class="groups"><g class="traces" transform="translate(0, 14.5)" style="opacity: 1;"><text class="legendtext" text-anchor="start" x="40" y="4.680000000000001" style="font-family: 'PT Serif'; font-size: 12px; fill: rgb(42, 63, 95); fill-opacity: 1; white-space: pre;">epoch 1</text><g class="layers" style="opacity: 0.7;"><g class="legendfill"/><g class="legendlines"/><g class="legendsymbols"><g class="legendpoints"><path class="legendbox" d="M6,6H-6V-6H6Z" transform="translate(20,0)" style="stroke-width: 0.7px; fill: rgb(31, 119, 180); fill-opacity: 1; stroke: rgb(0, 0, 0); stroke-opacity: 1;"/></g></g></g><rect class="legendtoggle" x="0" y="-9.5" width="89" height="19" style="fill: rgb(0, 0, 0); fill-opacity: 0;"/></g><g class="traces" transform="translate(0, 33.5)" style="opacity: 1;"><text class="legendtext" text-anchor="start" x="40" y="4.680000000000001" style="font-family: 'PT Serif'; font-size: 12px; fill: rgb(42, 63, 95); fill-opacity: 1; white-space: pre;">epoch 2</text><g class="layers" style="opacity: 0.7;"><g class="legendfill"/><g class="legendlines"/><g class="legendsymbols"><g class="legendpoints"><path class="legendbox" d="M6,6H-6V-6H6Z" transform="translate(20,0)" style="stroke-width: 0.7px; fill: rgb(255, 127, 14); fill-opacity: 1; stroke: rgb(0, 0, 0); stroke-opacity: 1;"/></g></g></g><rect class="legendtoggle" x="0" y="-9.5" width="89" height="19" style="fill: rgb(0, 0, 0); fill-opacity: 0;"/></g><g class="traces" transform="translate(0, 52.5)" style="opacity: 1;"><text class="legendtext" text-anchor="start" x="40" y="4.680000000000001" style="font-family: 'PT Serif'; font-size: 12px; fill: rgb(42, 63, 95); fill-opacity: 1; white-space: pre;">epoch 3</text><g class="layers" style="opacity: 0.7;"><g class="legendfill"/><g class="legendlines"/><g class="legendsymbols"><g class="legendpoints"><path class="legendbox" d="M6,6H-6V-6H6Z" transform="translate(20,0)" style="stroke-width: 0.7px; fill: rgb(44, 160, 44); fill-opacity: 1; stroke: rgb(0, 0, 0); stroke-opacity: 1;"/></g></g></g><rect class="legendtoggle" x="0" y="-9.5" width="89" height="19" style="fill: rgb(0, 0, 0); fill-opacity: 0;"/></g><g class="traces" transform="translate(0, 71.5)" style="opacity: 1;"><text class="legendtext" text-anchor="start" x="40" y="4.680000000000001" style="font-family: 'PT Serif'; font-size: 12px; fill: rgb(42, 63, 95); fill-opacity: 1; white-space: pre;">epoch 4</text><g class="layers" style="opacity: 0.7;"><g class="legendfill"/><g class="legendlines"/><g class="legendsymbols"><g class="legendpoints"><path class="legendbox" d="M6,6H-6V-6H6Z" transform="translate(20,0)" style="stroke-width: 0.7px; fill: rgb(214, 39, 40); fill-opacity: 1; stroke: rgb(0, 0, 0); stroke-opacity: 1;"/></g></g></g><rect class="legendtoggle" x="0" y="-9.5" width="89" height="19" style="fill: rgb(0, 0, 0); fill-opacity: 0;"/></g></g></g><rect class="scrollbar" rx="20" ry="3" width="0" height="0" style="fill: rgb(128, 139, 164); fill-opacity: 1;" x="0" y="0"/></g><g class="g-gtitle"><text class="gtitle" x="35" y="50" text-anchor="start" dy="0em" style="font-family: 'PT Serif'; font-size: 17px; fill: rgb(42, 63, 95); opacity: 1; font-weight: normal; white-space: pre;">Accuracy improvement across epochs</text></g><g class="g-xtitle"><text class="xtitle" x="332" y="488.0939453125" text-anchor="middle" style="font-family: 'PT Serif'; font-size: 14px; fill: rgb(42, 63, 95); opacity: 1; font-weight: normal; white-space: pre;">Network Type</text></g><g class="g-ytitle"><text class="ytitle" transform="rotate(-90,26.200000000000003,246)" x="26.200000000000003" y="246" text-anchor="middle" style="font-family: 'PT Serif'; font-size: 14px; fill: rgb(42, 63, 95); opacity: 1; font-weight: normal; white-space: pre;">Accuracy</text></g></g></svg>